# File created by Blade
# Date/Time:  Wed Jan 21 15:55:51 2015
# Frame Rate: 120.000 fps
#------------------------------------------------------
:FULLY-SPECIFIED
:DEGREES
1097
root 10.536462 27.668082 -13.804696 -175.086689 15.608971 -177.024984
Spine 29.063926 7.223769 6.716325
Head 1.090119 -0.380929 -2.455988
LeftShoulder 5.900904 -26.810786 -2.585541
LeftArm 1.948654 9.418410 -75.683741
LeftForeArm -9.189197 -0.000000 39.286482
LeftHand -5.471260 -0.000000 11.951321
LeftHandThumb1 -26.253704 0.000000 33.147579
RightShoulder -0.543846 -7.158635 3.092458
RightArm 33.257609 -10.075068 65.402734
RightForeArm -40.068609 -0.000000 60.431508
RightHand -11.140208 0.000000 6.994576
RightHandThumb1 -24.326973 -0.000000 -32.862282
LeftUpLeg -20.407464 20.257609 33.936359
LeftLeg 48.255179 -0.000000 -0.000000
LeftFoot -38.091165 16.365849 -29.541126
LeftToeBase 32.238432 -0.000000 -0.000000
RightUpLeg -51.382500 -25.859120 -10.778833
RightLeg 56.885756 -0.000000 -0.000000
RightFoot -21.940312 -4.318344 21.362323
RightToeBase 24.900826 -0.000000 -0.000000
1098
root 10.633191 27.722079 -13.873722 -175.135104 15.984115 -177.265714
Spine 28.737267 7.022744 6.737228
Head 1.219292 0.056258 -2.840397
LeftShoulder 5.462616 -26.590820 -2.517557
LeftArm 0.625878 8.985924 -76.069247
LeftForeArm -8.503359 -0.000000 42.665184
LeftHand -5.893103 0.000000 12.396289
LeftHandThumb1 -26.253704 0.000000 33.147579
RightShoulder -0.626816 -7.241891 2.808427
RightArm 33.365565 -10.041640 64.841436
RightForeArm -39.927675 0.000000 62.012678
RightHand -11.340697 -0.000000 7.046311
RightHandThumb1 -24.326973 -0.000000 -32.862282
LeftUpLeg -19.473723 20.200265 33.868855
LeftLeg 47.246479 -0.000000 -0.000000
LeftFoot -37.882545 16.527140 -29.710851
LeftToeBase 32.173114 -0.000000 -0.000000
RightUpLeg -51.421194 -25.592728 -10.855868
RightLeg 57.028339 -0.000000 -0.000000
RightFoot -22.279369 -4.312055 21.423591
RightToeBase 24.076612 -0.000000 -0.000000
1099
root 10.735235 27.782631 -13.951590 -175.202763 16.369596 -177.553600
Spine 28.385806 6.847625 6.756615
Head 1.398707 0.438875 -3.306767
LeftShoulder 5.148988 -26.535807 -2.508849
LeftArm -1.038084 8.374076 -76.468728
LeftForeArm -7.899597 -0.000000 46.191680
LeftHand -6.361687 -0.000000 12.284650
LeftHandThumb1 -26.253704 0.000000 33.147579
RightShoulder -0.721316 -7.328067 2.498613
RightArm 33.469115 -10.017224 64.310427
RightForeArm -39.804229 0.000000 63.562068
RightHand -11.405233 -0.000000 7.129916
RightHandThumb1 -24.326973 -0.000000 -32.862282
LeftUpLeg -18.468772 20.181706 33.759745
LeftLeg 46.138337 -0.000000 -0.000000
LeftFoot -37.619134 16.682386 -29.874608
LeftToeBase 32.172978 -0.000000 -0.000000
RightUpLeg -51.449090 -25.364641 -10.964160
RightLeg 57.171870 -0.000000 -0.000000
RightFoot -22.654033 -4.275298 21.497176
RightToeBase 23.657763 -0.000000 -0.000000
1100
root 10.840793 27.852991 -14.032152 -175.266899 16.710221 -177.887288
Spine 27.995528 6.620137 6.763714
Head 1.579938 0.862267 -3.866536
LeftShoulder 4.704523 -26.305174 -2.555062
LeftArm -2.625971 8.010224 -76.747284
LeftForeArm -7.476051 0.000000 49.938005
LeftHand -6.857507 -0.000000 12.299066
LeftHandThumb1 -26.253704 0.000000 33.147579
RightShoulder -0.773022 -7.495352 2.144369
RightArm 33.647781 -10.012565 63.677468
RightForeArm -39.582806 -0.000000 65.092747
RightHand -11.352653 -0.000000 6.909620
RightHandThumb1 -24.326973 -0.000000 -32.862282
LeftUpLeg -17.467361 20.066884 33.571500
LeftLeg 44.931700 -0.000000 -0.000000
LeftFoot -37.278263 16.983371 -29.978763
LeftToeBase 32.104878 -0.000000 -0.000000
RightUpLeg -51.464121 -25.211542 -11.097893
RightLeg 57.291952 -0.000000 -0.000000
RightFoot -23.003991 -4.265748 21.563347
RightToeBase 23.119649 -0.000000 -0.000000
1101
root 10.952326 27.931590 -14.115409 -175.312430 17.119508 -178.232742
Spine 27.564330 6.453653 6.775093
Head 1.807121 1.302773 -4.488967
LeftShoulder 4.256009 -26.095893 -2.630021
LeftArm -4.363465 7.615187 -77.017073
LeftForeArm -6.993784 0.000000 53.769126
LeftHand -7.400874 0.000000 12.247808
LeftHandThumb1 -26.253704 0.000000 33.147579
RightShoulder -0.790669 -7.638297 1.771413
RightArm 33.814027 -10.072739 63.027676
RightForeArm -39.714994 -0.000000 66.708994
RightHand -11.656593 0.000000 6.802193
RightHandThumb1 -24.326973 -0.000000 -32.862282
LeftUpLeg -16.394334 20.040599 33.371433
LeftLeg 43.625360 -0.000000 -0.000000
LeftFoot -36.878953 17.292759 -30.187090
LeftToeBase 31.999741 -0.000000 -0.000000
RightUpLeg -51.451279 -24.923375 -11.259638
RightLeg 57.326372 -0.000000 -0.000000
RightFoot -23.394286 -4.348753 21.563320
RightToeBase 22.884670 -0.000000 -0.000000
1102
root 11.077708 28.020028 -14.215987 -175.494627 17.582481 -178.602198
Spine 27.263056 6.388749 6.790734
Head 2.043875 1.751116 -5.142849
LeftShoulder 3.702504 -25.665896 -2.663552
LeftArm -5.803246 7.270854 -77.288067
LeftForeArm -6.641202 -0.000000 57.455142
LeftHand -7.983194 -0.000000 12.189346
LeftHandThumb1 -26.253704 0.000000 33.147579
RightShoulder -0.808948 -7.764572 1.428486
RightArm 33.964327 -10.151481 62.294554
RightForeArm -39.781310 -0.000000 68.298587
RightHand -11.834258 -0.000000 6.506979
RightHandThumb1 -24.326973 -0.000000 -32.862282
LeftUpLeg -15.090142 20.108487 33.210506
LeftLeg 42.205751 -0.000000 -0.000000
LeftFoot -36.335588 17.602430 -30.388944
LeftToeBase 31.839990 -0.000000 -0.000000
RightUpLeg -51.288606 -24.630884 -11.468861
RightLeg 57.345715 -0.000000 -0.000000
RightFoot -23.747962 -4.468131 21.534423
RightToeBase 22.590166 -0.000000 -0.000000
